<mxfile host="Electron" agent="Mozilla/5.0 (X11; Linux x86_64) AppleWebKit/537.36 (KHTML, like Gecko) draw.io/26.2.2 Chrome/134.0.6998.178 Electron/35.1.2 Safari/537.36" version="26.2.2" pages="2">
  <diagram name="send" id="gIOe0nHEjKcx69U4ihMK">
    <mxGraphModel dx="1381" dy="830" grid="1" gridSize="10" guides="1" tooltips="1" connect="1" arrows="1" fold="1" page="1" pageScale="1" pageWidth="1169" pageHeight="827" math="0" shadow="0">
      <root>
        <mxCell id="0" />
        <mxCell id="1" parent="0" />
        <mxCell id="R9eyRZ7sNsP4hW8lWQcz-5" style="edgeStyle=orthogonalEdgeStyle;rounded=0;orthogonalLoop=1;jettySize=auto;html=1;exitX=0;exitY=0.5;exitDx=0;exitDy=0;entryX=0.5;entryY=0;entryDx=0;entryDy=0;curved=1;" edge="1" parent="1" source="R9eyRZ7sNsP4hW8lWQcz-1" target="R9eyRZ7sNsP4hW8lWQcz-2">
          <mxGeometry relative="1" as="geometry" />
        </mxCell>
        <mxCell id="R9eyRZ7sNsP4hW8lWQcz-22" value="begin_transfer" style="edgeLabel;html=1;align=center;verticalAlign=middle;resizable=0;points=[];" vertex="1" connectable="0" parent="R9eyRZ7sNsP4hW8lWQcz-5">
          <mxGeometry x="-0.1816" y="4" relative="1" as="geometry">
            <mxPoint as="offset" />
          </mxGeometry>
        </mxCell>
        <mxCell id="R9eyRZ7sNsP4hW8lWQcz-1" value="IDLE" style="ellipse;whiteSpace=wrap;html=1;" vertex="1" parent="1">
          <mxGeometry x="520" y="240" width="120" height="80" as="geometry" />
        </mxCell>
        <mxCell id="R9eyRZ7sNsP4hW8lWQcz-6" style="edgeStyle=orthogonalEdgeStyle;rounded=0;orthogonalLoop=1;jettySize=auto;html=1;exitX=0.5;exitY=1;exitDx=0;exitDy=0;entryX=0.5;entryY=0;entryDx=0;entryDy=0;" edge="1" parent="1" source="R9eyRZ7sNsP4hW8lWQcz-2" target="R9eyRZ7sNsP4hW8lWQcz-4">
          <mxGeometry relative="1" as="geometry" />
        </mxCell>
        <mxCell id="R9eyRZ7sNsP4hW8lWQcz-23" value="master_i.STALL" style="edgeLabel;html=1;align=center;verticalAlign=middle;resizable=0;points=[];" vertex="1" connectable="0" parent="R9eyRZ7sNsP4hW8lWQcz-6">
          <mxGeometry x="0.1357" y="1" relative="1" as="geometry">
            <mxPoint x="-1" y="-6" as="offset" />
          </mxGeometry>
        </mxCell>
        <mxCell id="R9eyRZ7sNsP4hW8lWQcz-7" style="edgeStyle=orthogonalEdgeStyle;rounded=0;orthogonalLoop=1;jettySize=auto;html=1;exitX=1;exitY=0.5;exitDx=0;exitDy=0;entryX=0;entryY=0.5;entryDx=0;entryDy=0;" edge="1" parent="1" source="R9eyRZ7sNsP4hW8lWQcz-2" target="R9eyRZ7sNsP4hW8lWQcz-3">
          <mxGeometry relative="1" as="geometry" />
        </mxCell>
        <mxCell id="R9eyRZ7sNsP4hW8lWQcz-27" value="block_done" style="edgeLabel;html=1;align=center;verticalAlign=middle;resizable=0;points=[];" vertex="1" connectable="0" parent="R9eyRZ7sNsP4hW8lWQcz-7">
          <mxGeometry x="-0.462" relative="1" as="geometry">
            <mxPoint as="offset" />
          </mxGeometry>
        </mxCell>
        <mxCell id="R9eyRZ7sNsP4hW8lWQcz-13" style="edgeStyle=orthogonalEdgeStyle;rounded=0;orthogonalLoop=1;jettySize=auto;html=1;exitX=1;exitY=0;exitDx=0;exitDy=0;entryX=0;entryY=1;entryDx=0;entryDy=0;curved=1;strokeColor=#FF0000;" edge="1" parent="1" source="R9eyRZ7sNsP4hW8lWQcz-2" target="R9eyRZ7sNsP4hW8lWQcz-1">
          <mxGeometry relative="1" as="geometry" />
        </mxCell>
        <mxCell id="R9eyRZ7sNsP4hW8lWQcz-17" value="&lt;font style=&quot;color: rgb(255, 0, 0);&quot;&gt;master_i.err&lt;/font&gt;" style="edgeLabel;html=1;align=center;verticalAlign=middle;resizable=0;points=[];" vertex="1" connectable="0" parent="R9eyRZ7sNsP4hW8lWQcz-13">
          <mxGeometry x="-0.0068" y="2" relative="1" as="geometry">
            <mxPoint as="offset" />
          </mxGeometry>
        </mxCell>
        <mxCell id="R9eyRZ7sNsP4hW8lWQcz-2" value="SEND&lt;div&gt;ADDRESS/DATA&lt;/div&gt;" style="ellipse;whiteSpace=wrap;html=1;" vertex="1" parent="1">
          <mxGeometry x="360" y="320" width="120" height="80" as="geometry" />
        </mxCell>
        <mxCell id="R9eyRZ7sNsP4hW8lWQcz-12" style="edgeStyle=orthogonalEdgeStyle;rounded=0;orthogonalLoop=1;jettySize=auto;html=1;exitX=0.5;exitY=0;exitDx=0;exitDy=0;entryX=1;entryY=0.5;entryDx=0;entryDy=0;curved=1;" edge="1" parent="1" source="R9eyRZ7sNsP4hW8lWQcz-3" target="R9eyRZ7sNsP4hW8lWQcz-1">
          <mxGeometry relative="1" as="geometry" />
        </mxCell>
        <mxCell id="R9eyRZ7sNsP4hW8lWQcz-28" value="ack_complete" style="edgeLabel;html=1;align=center;verticalAlign=middle;resizable=0;points=[];" vertex="1" connectable="0" parent="R9eyRZ7sNsP4hW8lWQcz-12">
          <mxGeometry x="0.0657" y="6" relative="1" as="geometry">
            <mxPoint x="24" y="14" as="offset" />
          </mxGeometry>
        </mxCell>
        <mxCell id="R9eyRZ7sNsP4hW8lWQcz-15" style="edgeStyle=orthogonalEdgeStyle;rounded=0;orthogonalLoop=1;jettySize=auto;html=1;exitX=0;exitY=0;exitDx=0;exitDy=0;entryX=1;entryY=1;entryDx=0;entryDy=0;curved=1;strokeColor=#FF0000;" edge="1" parent="1" source="R9eyRZ7sNsP4hW8lWQcz-3" target="R9eyRZ7sNsP4hW8lWQcz-1">
          <mxGeometry relative="1" as="geometry" />
        </mxCell>
        <mxCell id="R9eyRZ7sNsP4hW8lWQcz-19" value="&lt;font style=&quot;color: rgb(255, 0, 0);&quot;&gt;master_i.err&lt;/font&gt;" style="edgeLabel;html=1;align=center;verticalAlign=middle;resizable=0;points=[];" vertex="1" connectable="0" parent="R9eyRZ7sNsP4hW8lWQcz-15">
          <mxGeometry x="-0.0068" y="-1" relative="1" as="geometry">
            <mxPoint as="offset" />
          </mxGeometry>
        </mxCell>
        <mxCell id="R9eyRZ7sNsP4hW8lWQcz-3" value="WAIT&lt;div&gt;ACK/ERR&lt;/div&gt;" style="ellipse;whiteSpace=wrap;html=1;" vertex="1" parent="1">
          <mxGeometry x="680" y="320" width="120" height="80" as="geometry" />
        </mxCell>
        <mxCell id="R9eyRZ7sNsP4hW8lWQcz-10" style="edgeStyle=orthogonalEdgeStyle;rounded=0;orthogonalLoop=1;jettySize=auto;html=1;exitX=0;exitY=0;exitDx=0;exitDy=0;entryX=0;entryY=1;entryDx=0;entryDy=0;curved=1;" edge="1" parent="1" source="R9eyRZ7sNsP4hW8lWQcz-4" target="R9eyRZ7sNsP4hW8lWQcz-2">
          <mxGeometry relative="1" as="geometry">
            <Array as="points">
              <mxPoint x="360" y="452" />
              <mxPoint x="360" y="388" />
            </Array>
          </mxGeometry>
        </mxCell>
        <mxCell id="R9eyRZ7sNsP4hW8lWQcz-24" value="!master_i.STALL" style="edgeLabel;html=1;align=center;verticalAlign=middle;resizable=0;points=[];" vertex="1" connectable="0" parent="R9eyRZ7sNsP4hW8lWQcz-10">
          <mxGeometry x="0.0756" relative="1" as="geometry">
            <mxPoint x="-23" y="1" as="offset" />
          </mxGeometry>
        </mxCell>
        <mxCell id="R9eyRZ7sNsP4hW8lWQcz-16" style="edgeStyle=orthogonalEdgeStyle;rounded=0;orthogonalLoop=1;jettySize=auto;html=1;exitX=1;exitY=0.5;exitDx=0;exitDy=0;entryX=0.5;entryY=1;entryDx=0;entryDy=0;curved=1;strokeColor=#FF0000;" edge="1" parent="1" source="R9eyRZ7sNsP4hW8lWQcz-4" target="R9eyRZ7sNsP4hW8lWQcz-1">
          <mxGeometry relative="1" as="geometry" />
        </mxCell>
        <mxCell id="R9eyRZ7sNsP4hW8lWQcz-20" value="&lt;font style=&quot;color: rgb(255, 0, 0);&quot;&gt;master_i.err&lt;/font&gt;" style="edgeLabel;html=1;align=center;verticalAlign=middle;resizable=0;points=[];" vertex="1" connectable="0" parent="R9eyRZ7sNsP4hW8lWQcz-16">
          <mxGeometry x="0.0084" y="30" relative="1" as="geometry">
            <mxPoint as="offset" />
          </mxGeometry>
        </mxCell>
        <mxCell id="R9eyRZ7sNsP4hW8lWQcz-4" value="STALL" style="ellipse;whiteSpace=wrap;html=1;" vertex="1" parent="1">
          <mxGeometry x="360" y="440" width="120" height="80" as="geometry" />
        </mxCell>
        <mxCell id="R9eyRZ7sNsP4hW8lWQcz-25" style="edgeStyle=orthogonalEdgeStyle;rounded=0;orthogonalLoop=1;jettySize=auto;html=1;exitX=0;exitY=0;exitDx=0;exitDy=0;entryX=0;entryY=0.5;entryDx=0;entryDy=0;curved=1;" edge="1" parent="1" source="R9eyRZ7sNsP4hW8lWQcz-2" target="R9eyRZ7sNsP4hW8lWQcz-2">
          <mxGeometry relative="1" as="geometry">
            <Array as="points">
              <mxPoint x="378" y="320" />
              <mxPoint x="330" y="320" />
              <mxPoint x="330" y="360" />
            </Array>
          </mxGeometry>
        </mxCell>
        <mxCell id="R9eyRZ7sNsP4hW8lWQcz-26" value="!block_done" style="edgeLabel;html=1;align=center;verticalAlign=middle;resizable=0;points=[];" vertex="1" connectable="0" parent="R9eyRZ7sNsP4hW8lWQcz-25">
          <mxGeometry x="-0.0115" y="5" relative="1" as="geometry">
            <mxPoint x="-5" y="5" as="offset" />
          </mxGeometry>
        </mxCell>
        <mxCell id="R9eyRZ7sNsP4hW8lWQcz-29" style="edgeStyle=orthogonalEdgeStyle;rounded=0;orthogonalLoop=1;jettySize=auto;html=1;exitX=1;exitY=1;exitDx=0;exitDy=0;entryX=1;entryY=0.5;entryDx=0;entryDy=0;curved=1;" edge="1" parent="1" source="R9eyRZ7sNsP4hW8lWQcz-3" target="R9eyRZ7sNsP4hW8lWQcz-3">
          <mxGeometry relative="1" as="geometry">
            <Array as="points">
              <mxPoint x="782" y="400" />
              <mxPoint x="820" y="400" />
              <mxPoint x="820" y="360" />
            </Array>
          </mxGeometry>
        </mxCell>
        <mxCell id="R9eyRZ7sNsP4hW8lWQcz-30" value="!ack_complete" style="edgeLabel;html=1;align=center;verticalAlign=middle;resizable=0;points=[];" vertex="1" connectable="0" parent="R9eyRZ7sNsP4hW8lWQcz-29">
          <mxGeometry x="0.0157" y="4" relative="1" as="geometry">
            <mxPoint x="14" y="-4" as="offset" />
          </mxGeometry>
        </mxCell>
      </root>
    </mxGraphModel>
  </diagram>
  <diagram id="LuMXjlLptYkvVXtju_CG" name="receive">
    <mxGraphModel dx="801" dy="481" grid="1" gridSize="10" guides="1" tooltips="1" connect="1" arrows="1" fold="1" page="1" pageScale="1" pageWidth="1169" pageHeight="827" math="0" shadow="0">
      <root>
        <mxCell id="0" />
        <mxCell id="1" parent="0" />
        <mxCell id="DIxoDP5U6Qko4_fMp49D-4" style="edgeStyle=orthogonalEdgeStyle;rounded=0;orthogonalLoop=1;jettySize=auto;html=1;exitX=0;exitY=1;exitDx=0;exitDy=0;entryX=0;entryY=0;entryDx=0;entryDy=0;curved=1;" edge="1" parent="1" source="DIxoDP5U6Qko4_fMp49D-2" target="DIxoDP5U6Qko4_fMp49D-3">
          <mxGeometry relative="1" as="geometry">
            <Array as="points">
              <mxPoint x="520" y="478" />
              <mxPoint x="520" y="532" />
            </Array>
          </mxGeometry>
        </mxCell>
        <mxCell id="DIxoDP5U6Qko4_fMp49D-7" value="master_i.ACK" style="edgeLabel;html=1;align=center;verticalAlign=middle;resizable=0;points=[];" vertex="1" connectable="0" parent="DIxoDP5U6Qko4_fMp49D-4">
          <mxGeometry x="-0.0397" relative="1" as="geometry">
            <mxPoint as="offset" />
          </mxGeometry>
        </mxCell>
        <mxCell id="DIxoDP5U6Qko4_fMp49D-2" value="IDLE" style="ellipse;whiteSpace=wrap;html=1;" vertex="1" parent="1">
          <mxGeometry x="530" y="410" width="120" height="80" as="geometry" />
        </mxCell>
        <mxCell id="DIxoDP5U6Qko4_fMp49D-5" style="edgeStyle=orthogonalEdgeStyle;rounded=0;orthogonalLoop=1;jettySize=auto;html=1;exitX=1;exitY=0;exitDx=0;exitDy=0;entryX=1;entryY=1;entryDx=0;entryDy=0;curved=1;" edge="1" parent="1" source="DIxoDP5U6Qko4_fMp49D-3" target="DIxoDP5U6Qko4_fMp49D-2">
          <mxGeometry relative="1" as="geometry">
            <Array as="points">
              <mxPoint x="670" y="532" />
              <mxPoint x="670" y="478" />
            </Array>
          </mxGeometry>
        </mxCell>
        <mxCell id="DIxoDP5U6Qko4_fMp49D-6" value="!master_i.ACK" style="edgeLabel;html=1;align=center;verticalAlign=middle;resizable=0;points=[];" vertex="1" connectable="0" parent="DIxoDP5U6Qko4_fMp49D-5">
          <mxGeometry x="0.1173" y="1" relative="1" as="geometry">
            <mxPoint y="2" as="offset" />
          </mxGeometry>
        </mxCell>
        <mxCell id="DIxoDP5U6Qko4_fMp49D-3" value="&lt;div&gt;RECEIVE ACK&lt;/div&gt;(LATCH DATA)" style="ellipse;whiteSpace=wrap;html=1;" vertex="1" parent="1">
          <mxGeometry x="530" y="520" width="120" height="80" as="geometry" />
        </mxCell>
        <mxCell id="DIxoDP5U6Qko4_fMp49D-10" style="edgeStyle=orthogonalEdgeStyle;rounded=0;orthogonalLoop=1;jettySize=auto;html=1;exitX=0;exitY=1;exitDx=0;exitDy=0;curved=1;entryX=1;entryY=1;entryDx=0;entryDy=0;" edge="1" parent="1" source="DIxoDP5U6Qko4_fMp49D-3" target="DIxoDP5U6Qko4_fMp49D-3">
          <mxGeometry relative="1" as="geometry">
            <mxPoint x="640" y="609.9999999999999" as="targetPoint" />
            <Array as="points">
              <mxPoint x="548" y="620" />
              <mxPoint x="632" y="620" />
            </Array>
          </mxGeometry>
        </mxCell>
        <mxCell id="DIxoDP5U6Qko4_fMp49D-11" value="master_i.ACK" style="edgeLabel;html=1;align=center;verticalAlign=middle;resizable=0;points=[];" vertex="1" connectable="0" parent="DIxoDP5U6Qko4_fMp49D-10">
          <mxGeometry x="-0.0726" y="1" relative="1" as="geometry">
            <mxPoint x="5" as="offset" />
          </mxGeometry>
        </mxCell>
        <mxCell id="f1vJ-QOEHnUI6j-GwcXZ-1" value="just set the ACK signal as the write enable signal on a FIFO?" style="text;html=1;align=center;verticalAlign=middle;resizable=0;points=[];autosize=1;strokeColor=none;fillColor=none;" vertex="1" parent="1">
          <mxGeometry x="395" y="338" width="350" height="30" as="geometry" />
        </mxCell>
      </root>
    </mxGraphModel>
  </diagram>
</mxfile>
